<svg width="32" height="33" viewBox="0 0 32 33" fill="none" xmlns="http://www.w3.org/2000/svg">
<path d="M31.3269 6.10116C31.1483 5.98439 30.9465 5.90621 30.7347 5.87179C30.523 5.83738 30.3063 5.84752 30.0988 5.90154C29.8914 5.95556 29.6981 6.05223 29.5316 6.18514C29.3652 6.31804 29.2295 6.48415 29.1335 6.67242L27.1098 10.6426H23.8546L23.0305 8.07858C23.0296 8.07579 23.0287 8.07306 23.0277 8.07033C22.7504 7.26265 22.2473 6.54766 21.5757 6.0069C20.9041 5.46615 20.0912 5.12139 19.2295 5.01194L17.7073 4.79235C17.6811 4.78876 16.5431 4.78689 16.5431 4.78689V3.18989C16.5431 3.0487 16.4859 2.9133 16.3841 2.81347C16.2824 2.71364 16.1443 2.65755 16.0004 2.65755C15.8931 2.65755 15.7881 2.62633 15.6989 2.56784C15.6096 2.50935 15.5401 2.42621 15.499 2.32893C15.4579 2.23166 15.4472 2.12463 15.4681 2.02137C15.4891 1.9181 15.5407 1.82325 15.6166 1.7488C15.6925 1.67435 15.7892 1.62365 15.8945 1.60311C15.9998 1.58257 16.1089 1.59312 16.2081 1.63341C16.3072 1.6737 16.392 1.74193 16.4516 1.82947C16.5113 1.91701 16.5431 2.01993 16.5431 2.12522C16.5431 2.2664 16.6003 2.4018 16.7021 2.50164C16.8038 2.60147 16.9419 2.65755 17.0858 2.65755C17.2297 2.65755 17.3678 2.60147 17.4696 2.50164C17.5713 2.4018 17.6285 2.2664 17.6285 2.12522C17.6285 1.83244 17.5464 1.5453 17.3913 1.29519C17.2361 1.04507 17.0139 0.841608 16.7488 0.707031C16.4837 0.572454 16.186 0.511944 15.8882 0.532116C15.5905 0.552287 15.3041 0.652364 15.0604 0.821407C14.8167 0.99045 14.625 1.22195 14.5064 1.49062C14.3878 1.75928 14.3467 2.05476 14.3877 2.34476C14.4287 2.63476 14.5502 2.90812 14.7389 3.13496C14.9276 3.36181 15.1763 3.5334 15.4577 3.63099V4.78689C15.4577 4.78689 14.3274 4.78822 14.305 4.79102L12.5087 5.01121C11.6459 5.11971 10.8316 5.46412 10.1589 6.00508C9.48619 6.54604 8.98221 7.26172 8.70455 8.07033C8.70088 8.08111 8.69776 8.09209 8.69464 8.10307L8.01301 10.6426H4.89103L2.86728 6.67242C2.68776 6.32025 2.37297 6.05245 1.99215 5.92794C1.61133 5.80343 1.19569 5.83241 0.836651 6.0085C0.477616 6.18459 0.204601 6.49337 0.0776664 6.86691C-0.0492685 7.24045 -0.0197254 7.64816 0.159797 8.00033L1.89008 11.3945V23.8266C1.64429 24.0421 1.47103 24.3257 1.39325 24.64C1.31547 24.9542 1.33684 25.2842 1.45452 25.5863C1.5722 25.8884 1.78065 26.1482 2.05225 26.3315C2.32386 26.5148 2.64581 26.6128 2.97548 26.6126H4.24575L4.83092 27.9518C4.44633 28.3394 4.19126 28.8327 4.09972 29.3661C4.00817 29.8994 4.08449 30.4475 4.31851 30.9372C4.55252 31.427 4.93313 31.8351 5.4096 32.1073C5.88608 32.3795 6.4358 32.5028 6.98554 32.4609C7.53527 32.4189 8.0589 32.2136 8.48667 31.8723C8.91445 31.531 9.22604 31.07 9.37994 30.5506C9.53385 30.0312 9.52275 29.4782 9.34813 28.9652C9.17351 28.4522 8.84366 28.0035 8.40253 27.679V26.6126H23.5983V27.6787C23.1566 28.0032 22.8263 28.4521 22.6513 28.9654C22.4763 29.4787 22.465 30.0322 22.6189 30.552C22.7727 31.0718 23.0844 31.5332 23.5124 31.8749C23.9405 32.2165 24.4645 32.422 25.0146 32.4641C25.5647 32.5062 26.1149 32.3828 26.5917 32.1103C27.0685 31.8379 27.4494 31.4294 27.6835 30.9393C27.9176 30.4492 27.9939 29.9007 27.9021 29.367C27.8104 28.8332 27.555 28.3396 27.1699 27.9519L27.7551 26.6126H29.0253C29.355 26.6128 29.6769 26.5148 29.9485 26.3315C30.2202 26.1482 30.4286 25.8884 30.5463 25.5863C30.664 25.2842 30.6853 24.9542 30.6075 24.64C30.5298 24.3257 30.3565 24.0421 30.1107 23.8266V11.3945L31.841 8.00006C32.0054 7.67635 32.0438 7.30498 31.9492 6.95545C31.8546 6.60593 31.6333 6.30221 31.3269 6.10116ZM23.5983 23.4186V20.2246H26.8545V23.4186H23.5983ZM18.7139 23.4186V22.3539H20.8847C21.0287 22.3539 21.1667 22.2978 21.2685 22.198C21.3703 22.0982 21.4274 21.9628 21.4274 21.8216V20.2246H22.5129V23.4186H18.7139ZM14.3723 23.4186V22.3539H17.6285V23.4186H14.3723ZM9.48794 23.4186V20.2246H10.5734V21.8216C10.5734 21.9628 10.6305 22.0982 10.7323 22.198C10.8341 22.2978 10.9721 22.3539 11.1161 22.3539H13.2869V23.4186H9.48794ZM5.1463 23.4186V20.2246H8.40253V23.4186H5.1463ZM10.5734 14.7526V14.9013H9.48794V14.3977L10.5734 14.7526ZM11.6588 13.3042H20.342V15.9659H11.6588V13.3042ZM26.8545 19.1599H23.5983V15.9659H26.8545V19.1599ZM22.5129 19.1599H21.4274V15.9659H22.5129V19.1599ZM11.6588 21.2893V17.0306H20.342V21.2893H11.6588ZM21.4274 14.9013V14.7526L22.5129 14.3977V14.9013H21.4274ZM10.5734 15.9659V19.1599H9.48794V15.9659H10.5734ZM8.40253 19.1599H5.1463V15.9659H8.40253V19.1599ZM26.8545 11.7072V14.9013H23.5983V14.0429L24.3126 13.8093C24.4478 13.7651 24.5598 13.6706 24.6245 13.5461C24.6893 13.4216 24.7015 13.2771 24.6586 13.1439L24.1967 11.7072H26.8545ZM14.915 5.85156H17.0858V6.3839C17.0858 6.66626 16.9715 6.93707 16.7679 7.13673C16.5643 7.3364 16.2883 7.44857 16.0004 7.44857C15.7125 7.44857 15.4365 7.3364 15.2329 7.13673C15.0293 6.93707 14.915 6.66626 14.915 6.3839V5.85156ZM12.6434 6.06769L13.8296 5.92223V6.3839C13.8296 6.94863 14.0583 7.49024 14.4654 7.88957C14.8725 8.28889 15.4247 8.51324 16.0004 8.51324C16.5761 8.51324 17.1283 8.28889 17.5354 7.88957C17.9425 7.49024 18.1712 6.94863 18.1712 6.3839V5.93554L19.0774 6.06616L19.089 6.06769C19.7481 6.15057 20.3702 6.41349 20.8843 6.82646C21.3984 7.23943 21.7839 7.78582 21.9967 8.40331L23.4626 12.9649L21.4274 13.6303V10.6426H20.342V12.2396H11.6588V10.6426H10.5734V13.6303L8.51419 12.957L9.73962 8.39133C9.95403 7.77663 10.3397 7.23313 10.8529 6.82243C11.3661 6.41174 11.9864 6.15028 12.6434 6.06769ZM7.6882 13.8093L8.40253 14.0429V14.9013H5.1463V11.7072H7.72727L7.33503 13.1687C7.29991 13.2995 7.31687 13.4385 7.38246 13.5575C7.44806 13.6765 7.55737 13.7665 7.6882 13.8093ZM1.13063 7.52416C1.08412 7.43258 1.07325 7.32751 1.10003 7.22863C1.12682 7.12974 1.18943 7.04383 1.27614 6.98697C1.32665 6.95395 1.38375 6.93185 1.44363 6.92213C1.50351 6.9124 1.56482 6.91528 1.62349 6.93056C1.68215 6.94585 1.73683 6.97319 1.78391 7.01078C1.83098 7.04837 1.86936 7.09535 1.89652 7.14859L3.67747 10.6426H2.72021L1.13063 7.52416ZM2.97548 11.7072H4.06089V23.4186H2.97548V11.7072ZM6.77442 31.4036C6.49575 31.4038 6.2217 31.3338 5.97853 31.2003C5.73536 31.0668 5.53122 30.8743 5.38569 30.6412C5.24015 30.4081 5.1581 30.1422 5.14739 29.8691C5.13667 29.596 5.19767 29.3247 5.32451 29.0813L5.4781 29.4328C5.59978 29.7114 5.80495 29.9471 6.06637 30.1087C6.32779 30.2702 6.63312 30.35 6.94184 30.3374C7.25056 30.3248 7.54808 30.2205 7.79493 30.0382C8.04177 29.8559 8.22628 29.6043 8.32398 29.3167C8.40278 29.5563 8.42272 29.8107 8.38217 30.0593C8.34162 30.3079 8.24172 30.5435 8.09063 30.747C7.93955 30.9505 7.74155 31.116 7.5128 31.2301C7.28406 31.3443 7.03105 31.4037 6.77442 31.4036ZM6.17378 28.3227C6.53961 28.1797 6.94596 28.1721 7.31712 28.3012V28.8442C7.317 28.9432 7.28209 29.0391 7.21829 29.1157C7.15448 29.1924 7.06569 29.2451 6.96687 29.265C6.86805 29.2849 6.76526 29.2707 6.67583 29.225C6.58639 29.1792 6.51579 29.1045 6.47593 29.0136L6.17378 28.3227ZM7.31712 27.1985C6.79035 27.0932 6.24357 27.1439 5.7462 27.344L5.42661 26.6126H7.31712V27.1985ZM24.6837 28.3012C25.0548 28.1721 25.4612 28.1797 25.827 28.3227L25.5251 29.0136C25.4853 29.1045 25.4147 29.1792 25.3252 29.225C25.2358 29.2707 25.133 29.2849 25.0342 29.265C24.9354 29.2451 24.8466 29.1924 24.7828 29.1157C24.719 29.0391 24.6841 28.9432 24.6839 28.8442L24.6837 28.3012ZM26.8545 29.8066C26.8546 30.0373 26.8037 30.2653 26.7053 30.4749C26.6069 30.6845 26.4635 30.8707 26.2847 31.0206C26.106 31.1706 25.8962 31.2808 25.6699 31.3437C25.4436 31.4065 25.2061 31.4205 24.9737 31.3847C24.7414 31.3489 24.5197 31.2642 24.3239 31.1363C24.1281 31.0084 23.9629 30.8404 23.8397 30.6439C23.7164 30.4474 23.6381 30.227 23.6099 29.998C23.5818 29.7689 23.6046 29.5366 23.6768 29.317C23.7745 29.6045 23.959 29.8561 24.2059 30.0384C24.4528 30.2207 24.7503 30.3251 25.059 30.3376C25.3677 30.3502 25.673 30.2705 25.9345 30.1089C26.1959 29.9473 26.4011 29.7116 26.5228 29.4331L26.6764 29.0816C26.7936 29.306 26.8546 29.5545 26.8545 29.8066ZM26.2546 27.344C25.7572 27.1439 25.2104 27.0932 24.6837 27.1985V26.6126H26.5742L26.2546 27.344ZM29.0253 25.5479H2.97548C2.83155 25.5479 2.69351 25.4919 2.59173 25.392C2.48996 25.2922 2.43278 25.1568 2.43278 25.0156C2.43278 24.8744 2.48996 24.739 2.59173 24.6392C2.69351 24.5394 2.83155 24.4833 2.97548 24.4833H29.0253C29.1692 24.4833 29.3073 24.5394 29.4091 24.6392C29.5108 24.739 29.568 24.8744 29.568 25.0156C29.568 25.1568 29.5108 25.2922 29.4091 25.392C29.3073 25.4919 29.1692 25.5479 29.0253 25.5479ZM27.9399 23.4186V11.7072H29.0253V23.4186H27.9399ZM30.8705 7.52416L29.2806 10.6426H28.3233L30.1043 7.14859C30.1314 7.09534 30.1698 7.04837 30.2169 7.01078C30.264 6.97319 30.3187 6.94584 30.3773 6.93056C30.436 6.91527 30.4973 6.9124 30.5572 6.92212C30.6171 6.93185 30.6742 6.95395 30.7247 6.98697C30.8115 7.0438 30.8741 7.12969 30.901 7.22858C30.9278 7.32746 30.917 7.43254 30.8705 7.52416Z" fill="#000"/>
</svg>
