<svg width="152" height="22" viewBox="0 0 152 22" fill="none" xmlns="http://www.w3.org/2000/svg">
<path d="M11.2932 21.1168C9.15854 21.1168 7.23547 20.6745 5.52394 19.7899C3.81241 18.886 2.46626 17.6361 1.4855 16.0399C0.52396 14.4245 0.0431928 12.5976 0.0431928 10.5592C0.0431928 8.5207 0.52396 6.7034 1.4855 5.10725C2.46626 3.49187 3.81241 2.24188 5.52394 1.35727C7.23547 0.453425 9.15854 0.00150359 11.2932 0.00150359C13.2547 0.00150359 15.0047 0.347656 16.5431 1.03996C18.0816 1.73227 19.3508 2.73226 20.3508 4.03995L16.0528 7.87647C14.8028 6.29956 13.3316 5.5111 11.6393 5.5111C10.2162 5.5111 9.07201 5.97263 8.20662 6.89571C7.34124 7.79955 6.90855 9.0207 6.90855 10.5592C6.90855 12.0976 7.34124 13.3284 8.20662 14.2515C9.07201 15.1553 10.2162 15.6072 11.6393 15.6072C13.3316 15.6072 14.8028 14.8188 16.0528 13.2418L20.3508 17.0784C19.3508 18.3861 18.0816 19.386 16.5431 20.0784C15.0047 20.7707 13.2547 21.1168 11.2932 21.1168ZM23.7587 0.46304H30.5664V15.3764H39.6817V20.6553H23.7587V0.46304ZM53.3092 21.1168C51.1362 21.1168 49.1842 20.6649 47.4535 19.761C45.7227 18.8572 44.3669 17.6072 43.3862 16.0111C42.4054 14.3957 41.915 12.5784 41.915 10.5592C41.915 8.53993 42.4054 6.73225 43.3862 5.1361C44.3669 3.52072 45.7227 2.26111 47.4535 1.35727C49.1842 0.453425 51.1362 0.00150359 53.3092 0.00150359C55.4823 0.00150359 57.4342 0.453425 59.165 1.35727C60.8957 2.26111 62.2515 3.52072 63.2323 5.1361C64.213 6.73225 64.7034 8.53993 64.7034 10.5592C64.7034 12.5784 64.213 14.3957 63.2323 16.0111C62.2515 17.6072 60.8957 18.8572 59.165 19.761C57.4342 20.6649 55.4823 21.1168 53.3092 21.1168ZM53.3092 15.6072C54.1554 15.6072 54.915 15.4053 55.5881 15.0014C56.2804 14.5784 56.8284 13.9918 57.2323 13.2418C57.6361 12.4726 57.838 11.5784 57.838 10.5592C57.838 9.53993 57.6361 8.65532 57.2323 7.90532C56.8284 7.13609 56.2804 6.54956 55.5881 6.14571C54.915 5.72264 54.1554 5.5111 53.3092 5.5111C52.4631 5.5111 51.6938 5.72264 51.0015 6.14571C50.3285 6.54956 49.79 7.13609 49.3862 7.90532C48.9823 8.65532 48.7804 9.53993 48.7804 10.5592C48.7804 11.5784 48.9823 12.4726 49.3862 13.2418C49.79 13.9918 50.3285 14.5784 51.0015 15.0014C51.6938 15.4053 52.4631 15.6072 53.3092 15.6072ZM72.7195 5.74187H66.806V0.46304H85.4406V5.74187H79.5271V20.6553H72.7195V5.74187ZM108.555 0.46304V20.6553H101.747V13.213H95.4587V20.6553H88.651V0.46304H95.4587V7.61686H101.747V0.46304H108.555ZM130.066 15.5207V20.6553H113.277V0.46304H129.691V5.59764H119.97V7.96301H128.508V12.8668H119.97V15.5207H130.066ZM141.657 21.1168C139.984 21.1168 138.35 20.9341 136.754 20.5687C135.177 20.1841 133.879 19.6745 132.859 19.0399L135.052 14.0784C136.013 14.6361 137.09 15.088 138.282 15.4341C139.475 15.7611 140.619 15.9245 141.715 15.9245C142.657 15.9245 143.331 15.838 143.734 15.6649C144.138 15.4726 144.34 15.1938 144.34 14.8284C144.34 14.4053 144.071 14.088 143.532 13.8765C143.013 13.6649 142.148 13.4341 140.936 13.1841C139.379 12.8572 138.081 12.5111 137.042 12.1457C136.004 11.7611 135.1 11.1457 134.331 10.2995C133.561 9.43416 133.177 8.2707 133.177 6.80917C133.177 5.53994 133.532 4.3861 134.244 3.34764C134.956 2.30919 136.013 1.49188 137.417 0.89573C138.84 0.299579 140.561 0.00150359 142.581 0.00150359C143.965 0.00150359 145.321 0.155349 146.648 0.46304C147.994 0.7515 149.177 1.18419 150.196 1.76111L148.148 6.69379C146.167 5.69379 144.292 5.19379 142.523 5.19379C140.773 5.19379 139.898 5.61687 139.898 6.46302C139.898 6.86686 140.157 7.17455 140.677 7.38609C141.196 7.5784 142.052 7.78994 143.244 8.0207C144.782 8.30917 146.081 8.6457 147.138 9.03032C148.196 9.3957 149.109 10.0015 149.879 10.8476C150.667 11.6938 151.061 12.8476 151.061 14.3091C151.061 15.5784 150.705 16.7322 149.994 17.7707C149.282 18.7899 148.215 19.6072 146.792 20.2226C145.388 20.8187 143.677 21.1168 141.657 21.1168Z" fill="#333333"/>
</svg>
