<svg width="83" height="83" viewBox="0 0 83 83" fill="none" xmlns="http://www.w3.org/2000/svg">
<path fill-rule="evenodd" clip-rule="evenodd" d="M41.3435 82.687C64.1769 82.687 82.687 64.1769 82.687 41.3435C82.687 18.5101 64.1769 0 41.3435 0C18.5101 0 0 18.5101 0 41.3435C0 64.1769 18.5101 82.687 41.3435 82.687ZM16.5114 51.6655C16.5112 52.253 16.954 52.7533 17.5446 52.818C17.6441 52.8291 64.9989 52.8263 65.0089 52.8252C65.6692 52.8265 66.1756 52.2932 66.1756 51.6655C66.1756 48.228 64.1807 44.6999 60.7361 43.0405L42.5032 34.2621V31.7041C42.5033 31.0673 41.9889 30.5448 41.3421 30.5445C39.9359 30.5437 38.7921 29.3994 38.792 27.993C38.7921 26.5828 39.9333 25.4417 41.3435 25.4416C42.7503 25.4416 43.8949 26.5862 43.895 27.993C43.895 28.6336 44.4142 29.1528 45.0547 29.1528C45.6952 29.1527 46.2144 28.6335 46.2144 27.993C46.2144 25.3072 44.0293 23.1221 41.3435 23.1221C38.6576 23.1222 36.4726 25.3072 36.4726 27.993C36.4725 30.2793 38.0561 32.2016 40.1837 32.7234L40.1838 34.2621L21.9511 43.0404C18.4947 44.7055 16.5114 48.2412 16.5114 51.6655ZM22.8079 50.4511L41.3435 41.5265L59.8791 50.451L22.8079 50.4511ZM19.1675 49.6294C19.7291 47.6909 21.0953 46.0273 22.9576 45.1301L40.1837 36.8364L40.1837 39.5105L19.1675 49.6294ZM42.5032 36.8365L59.7295 45.1303C61.5916 46.0273 62.9578 47.6908 63.5194 49.6295L42.5032 39.5106L42.5032 36.8365Z" fill="#775ADA"/>
</svg>
