<svg width="135" height="41" viewBox="0 0 135 41" fill="none" xmlns="http://www.w3.org/2000/svg">
<path d="M54.0825 7.42568L51.449 15.2039H50.849L48.4378 8.22572L46.0154 15.2039H45.4154L42.7708 7.42568H43.3708L45.7376 14.4261L48.1711 7.42568H48.7156L51.1379 14.4372L53.527 7.42568H54.0825Z" fill="#333333"/>
<path d="M66.4002 13.0149H61.8888L60.8999 15.2039H60.2887L63.8667 7.42568H64.4334L68.0114 15.2039H67.4003L66.4002 13.0149ZM66.1891 12.5371L64.1445 8.04794L62.1111 12.5371H66.1891Z" fill="#333333"/>
<path d="M75.535 7.42568H76.1017V14.6928H80.5797V15.2039H75.535V7.42568Z" fill="#333333"/>
<path d="M90.4576 11.3704L88.7131 13.1594V15.2039H88.1464V7.42568H88.7131V12.426L93.5689 7.42568H94.2579L90.8354 10.9592L94.4912 15.2039H93.8023L90.4576 11.3704Z" fill="#333333"/>
<path d="M102.071 7.42568H102.638V15.2039H102.071V7.42568Z" fill="#333333"/>
<path d="M117.793 7.42568V15.2039H117.326L112.026 8.44796V15.2039H111.459V7.42568H111.937L117.226 14.1816V7.42568H117.793Z" fill="#333333"/>
<path d="M132.177 11.3481H132.721V14.2594C132.381 14.5854 131.966 14.8335 131.477 15.0039C130.995 15.1743 130.484 15.2595 129.943 15.2595C129.173 15.2595 128.477 15.0891 127.854 14.7483C127.239 14.4076 126.754 13.9372 126.399 13.3371C126.051 12.7371 125.876 12.063 125.876 11.3148C125.876 10.5666 126.051 9.89249 126.399 9.29245C126.754 8.69242 127.239 8.22202 127.854 7.88126C128.477 7.5405 129.177 7.37012 129.954 7.37012C130.525 7.37012 131.047 7.46272 131.521 7.64791C132.003 7.8257 132.414 8.08868 132.755 8.43685L132.399 8.81465C132.073 8.4887 131.706 8.25536 131.299 8.11461C130.899 7.96645 130.454 7.89237 129.966 7.89237C129.299 7.89237 128.695 8.04053 128.154 8.33684C127.621 8.63316 127.202 9.04429 126.899 9.57025C126.595 10.0888 126.443 10.6703 126.443 11.3148C126.443 11.9519 126.595 12.5334 126.899 13.0593C127.21 13.5779 127.632 13.989 128.165 14.2928C128.699 14.5891 129.299 14.7372 129.966 14.7372C130.854 14.7372 131.592 14.5002 132.177 14.0261V11.3481Z" fill="#333333"/>
<path d="M49.0567 33.165C47.7553 33.165 46.5829 32.8953 45.5395 32.356C44.4961 31.805 43.6754 31.043 43.0775 30.0699C42.4913 29.0851 42.1982 27.9713 42.1982 26.7286C42.1982 25.4859 42.4913 24.378 43.0775 23.4049C43.6754 22.4201 44.4961 21.6581 45.5395 21.1188C46.5829 20.5677 47.7553 20.2922 49.0567 20.2922C50.2525 20.2922 51.3194 20.5033 52.2573 20.9253C53.1952 21.3474 53.9689 21.957 54.5786 22.7542L51.9583 25.0931C51.1963 24.1318 50.2994 23.6511 49.2677 23.6511C48.4001 23.6511 47.7026 23.9325 47.175 24.4952C46.6474 25.0462 46.3836 25.7907 46.3836 26.7286C46.3836 27.6665 46.6474 28.4168 47.175 28.9796C47.7026 29.5306 48.4001 29.8061 49.2677 29.8061C50.2994 29.8061 51.1963 29.3254 51.9583 28.3641L54.5786 30.703C53.9689 31.5002 53.1952 32.1098 52.2573 32.5319C51.3194 32.9539 50.2525 33.165 49.0567 33.165Z" fill="#333333"/>
<path d="M56.6562 20.5736H60.8064V29.6654H66.3635V32.8836H56.6562V20.5736Z" fill="#333333"/>
<path d="M74.6713 33.165C73.3465 33.165 72.1566 32.8895 71.1014 32.3384C70.0463 31.7874 69.2198 31.0254 68.6218 30.0523C68.0239 29.0675 67.725 27.9596 67.725 26.7286C67.725 25.4976 68.0239 24.3956 68.6218 23.4225C69.2198 22.4377 70.0463 21.6698 71.1014 21.1188C72.1566 20.5677 73.3465 20.2922 74.6713 20.2922C75.9961 20.2922 77.1861 20.5677 78.2412 21.1188C79.2964 21.6698 80.1229 22.4377 80.7208 23.4225C81.3187 24.3956 81.6177 25.4976 81.6177 26.7286C81.6177 27.9596 81.3187 29.0675 80.7208 30.0523C80.1229 31.0254 79.2964 31.7874 78.2412 32.3384C77.1861 32.8895 75.9961 33.165 74.6713 33.165ZM74.6713 29.8061C75.1872 29.8061 75.6503 29.683 76.0606 29.4368C76.4826 29.1789 76.8168 28.8213 77.063 28.3641C77.3092 27.8951 77.4323 27.35 77.4323 26.7286C77.4323 26.1072 77.3092 25.5679 77.063 25.1107C76.8168 24.6418 76.4826 24.2842 76.0606 24.038C75.6503 23.7801 75.1872 23.6511 74.6713 23.6511C74.1555 23.6511 73.6865 23.7801 73.2645 24.038C72.8541 24.2842 72.5259 24.6418 72.2797 25.1107C72.0335 25.5679 71.9104 26.1072 71.9104 26.7286C71.9104 27.35 72.0335 27.8951 72.2797 28.3641C72.5259 28.8213 72.8541 29.1789 73.2645 29.4368C73.6865 29.683 74.1555 29.8061 74.6713 29.8061Z" fill="#333333"/>
<path d="M86.5046 23.7918H82.8995V20.5736H94.2599V23.7918H90.6548V32.8836H86.5046V23.7918Z" fill="#333333"/>
<path d="M108.351 20.5736V32.8836H104.201V28.3465H100.367V32.8836H96.2171V20.5736H100.367V24.9349H104.201V20.5736H108.351Z" fill="#333333"/>
<path d="M121.465 29.7533V32.8836H111.23V20.5736H121.236V23.7039H115.31V25.1459H120.515V28.1355H115.31V29.7533H121.465Z" fill="#333333"/>
<path d="M128.532 33.165C127.512 33.165 126.515 33.0536 125.542 32.8308C124.581 32.5964 123.79 32.2857 123.168 31.8988L124.505 28.8741C125.091 29.214 125.747 29.4896 126.474 29.7006C127.201 29.8999 127.899 29.9995 128.567 29.9995C129.142 29.9995 129.552 29.9468 129.798 29.8413C130.044 29.724 130.167 29.554 130.167 29.3313C130.167 29.0734 130.003 28.8799 129.675 28.751C129.358 28.622 128.831 28.4813 128.092 28.3289C127.143 28.1296 126.351 27.9186 125.718 27.6958C125.085 27.4613 124.534 27.0862 124.065 26.5703C123.596 26.0428 123.362 25.3335 123.362 24.4425C123.362 23.6687 123.579 22.9653 124.012 22.3322C124.446 21.6991 125.091 21.2008 125.947 20.8374C126.814 20.474 127.864 20.2922 129.095 20.2922C129.939 20.2922 130.765 20.386 131.574 20.5736C132.395 20.7495 133.116 21.0132 133.737 21.365L132.489 24.3721C131.281 23.7625 130.138 23.4577 129.059 23.4577C127.993 23.4577 127.459 23.7156 127.459 24.2314C127.459 24.4776 127.617 24.6652 127.934 24.7942C128.251 24.9114 128.772 25.0404 129.499 25.1811C130.437 25.3569 131.228 25.5621 131.873 25.7966C132.518 26.0193 133.075 26.3886 133.544 26.9045C134.024 27.4203 134.265 28.1237 134.265 29.0147C134.265 29.7885 134.048 30.4919 133.614 31.125C133.18 31.7464 132.53 32.2446 131.662 32.6198C130.806 32.9832 129.763 33.165 128.532 33.165Z" fill="#333333"/>
<path fill-rule="evenodd" clip-rule="evenodd" d="M19.5085 40.0081C30.2827 40.0081 39.0169 31.2739 39.0169 20.4997C39.0169 9.72545 30.2827 0.991211 19.5085 0.991211C8.73424 0.991211 0 9.72545 0 20.4997C0 31.2739 8.73424 40.0081 19.5085 40.0081ZM7.7911 25.3705C7.791 25.6477 7.99995 25.8838 8.27864 25.9143C8.32556 25.9195 30.6706 25.9182 30.6753 25.9177C30.9869 25.9183 31.2258 25.6667 31.2258 25.3705C31.2258 23.7485 30.2845 22.0837 28.6591 21.3007L20.0557 17.1585V15.9515C20.0557 15.651 19.813 15.4045 19.5078 15.4043C18.8442 15.4039 18.3045 14.864 18.3045 14.2003C18.3045 13.5349 18.843 12.9965 19.5084 12.9964C20.1723 12.9964 20.7124 13.5365 20.7124 14.2003C20.7124 14.5026 20.9574 14.7476 21.2596 14.7476C21.5618 14.7476 21.8069 14.5025 21.8069 14.2003C21.8069 12.933 20.7758 11.9019 19.5084 11.9019C18.2411 11.902 17.21 12.933 17.21 14.2003C17.21 15.2792 17.9572 16.1862 18.9612 16.4324L18.9612 17.1585L10.3579 21.3006C8.72696 22.0863 7.7911 23.7547 7.7911 25.3705ZM10.7622 24.7975L19.5084 20.5863L28.2547 24.7974L10.7622 24.7975ZM9.04442 24.4098C9.30943 23.495 9.95408 22.71 10.8328 22.2867L18.9612 18.3732L18.9612 19.635L9.04442 24.4098ZM20.0557 18.3732L28.1841 22.2868C29.0628 22.71 29.7074 23.495 29.9724 24.4098L20.0557 19.635L20.0557 18.3732Z" fill="#775ADA"/>
</svg>
