<svg width="19" height="19" viewBox="0 0 19 19" fill="none" xmlns="http://www.w3.org/2000/svg">
<g clip-path="url(#clip0)">
<path d="M16.6504 7.87305C16.6504 13.123 9.90039 17.623 9.90039 17.623C9.90039 17.623 3.15039 13.123 3.15039 7.87305C3.15039 6.08284 3.86155 4.36595 5.12742 3.10008C6.39329 1.83421 8.11018 1.12305 9.90039 1.12305C11.6906 1.12305 13.4075 1.83421 14.6734 3.10008C15.9392 4.36595 16.6504 6.08284 16.6504 7.87305Z" stroke="#FF304F" stroke-width="2" stroke-linecap="round" stroke-linejoin="round"/>
<path d="M9.90039 10.123C11.143 10.123 12.1504 9.11569 12.1504 7.87305C12.1504 6.63041 11.143 5.62305 9.90039 5.62305C8.65775 5.62305 7.65039 6.63041 7.65039 7.87305C7.65039 9.11569 8.65775 10.123 9.90039 10.123Z" stroke="#FF304F" stroke-width="2" stroke-linecap="round" stroke-linejoin="round"/>
</g>
<defs>
<clipPath id="clip0">
<rect width="18" height="18" fill="white" transform="translate(0.900391 0.373047)"/>
</clipPath>
</defs>
</svg>
