<svg width="33" height="32" viewBox="0 0 33 32" fill="none" xmlns="http://www.w3.org/2000/svg">
<g clip-path="url(#clip0)">
<path d="M8.15673 0C3.68806 0 0.0651855 3.51309 0.0651855 7.84634C0.0651855 12.1798 3.68806 15.6929 8.15673 15.6929C12.6256 15.6929 16.2485 12.1798 16.2485 7.84634C16.2434 3.51507 12.6236 0.00494071 8.15673 0ZM3.08353 12.7666V12.6989C3.08353 12.6838 3.08276 12.669 3.08098 12.6542C3.01984 12.0677 3.21753 11.4834 3.62514 11.0462C4.03275 10.6089 4.61232 10.3594 5.22016 10.3594H5.60102L6.42159 12.8483C6.47305 13.0047 6.60934 13.1206 6.77595 13.1495C6.94231 13.1784 7.11172 13.1156 7.21592 12.9864L8.03878 11.9872H8.20768L9.11155 13.003C9.21804 13.1225 9.38236 13.1781 9.5426 13.1485C9.70284 13.1188 9.83455 13.0086 9.8883 12.8592L10.785 10.3594H11.0938C11.7017 10.3594 12.281 10.6089 12.6886 11.0462C13.0962 11.4837 13.2936 12.0677 13.2325 12.6542C13.2307 12.669 13.2299 12.6838 13.2299 12.6989V12.7666C11.8856 14.0731 10.0603 14.8073 8.15673 14.8073C6.2532 14.8073 4.42787 14.0731 3.08327 12.7666H3.08353ZM7.93891 10.434H8.29761L8.11826 10.9896L7.93891 10.434ZM14.0775 11.7779C13.7585 10.4296 12.5209 9.47381 11.0941 9.47406H10.4602C10.2661 9.47406 10.0931 9.59338 10.0292 9.77149L9.2858 11.8436L8.92864 11.4424L9.35459 10.1238C9.3979 9.98938 9.37293 9.84289 9.28682 9.72925C9.20072 9.61586 9.06417 9.54867 8.91896 9.54867H7.31756C7.17235 9.54867 7.0358 9.61586 6.9497 9.72925C6.86359 9.84289 6.83837 9.98938 6.88193 10.1238L7.31094 11.4523L7.03173 11.7915L6.36936 9.78211C6.30899 9.59857 6.13321 9.47406 5.9345 9.47406H5.22042C3.79328 9.47332 2.55517 10.4293 2.23596 11.7779C0.186704 8.87945 0.687044 4.9543 3.40223 2.62648C6.11741 0.298913 10.196 0.298913 12.9115 2.62648C15.6267 4.9543 16.127 8.87945 14.0775 11.7779Z" fill="#BDBDBD"/>
<path d="M8.72203 1.90417H6.04175C5.52409 1.90442 5.10476 2.31104 5.10425 2.81302V6.419C5.10425 8.00694 6.43152 9.29424 8.06909 9.29424C9.70666 9.29424 11.0342 8.00694 11.0342 6.419V4.14602C11.0327 2.90837 9.99836 1.90541 8.72203 1.90417ZM10.1038 3.9437C9.25167 4.1979 8.36716 4.01559 7.46991 3.39726C7.20827 3.21495 6.96294 3.01164 6.73647 2.7893H8.72254C9.41369 2.79079 10.0004 3.2809 10.1038 3.9437ZM6.87684 4.07389C6.65596 4.37922 6.3607 4.62725 6.01729 4.79548V3.3439C6.28198 3.6102 6.5696 3.85427 6.87684 4.07389ZM8.06909 8.40862C6.93645 8.40739 6.01857 7.51732 6.01729 6.419V5.74311C6.84779 5.50373 7.37896 4.92913 7.65868 4.53659C8.18424 4.79671 8.76483 4.9353 9.35484 4.94148C9.61266 4.94098 9.86996 4.91233 10.1211 4.85576V6.419C10.1199 7.51732 9.20174 8.40739 8.06909 8.40862Z" fill="#BDBDBD"/>
<path d="M24.8811 16.3071C20.4122 16.3071 16.7893 19.82 16.7893 24.1535C16.7893 28.487 20.4122 32.0001 24.8811 32.0001C29.35 32.0001 32.9726 28.4872 32.9726 24.1537C32.9676 19.8222 29.348 16.3121 24.8811 16.3071ZM20.1228 29.361C20.3207 28.4588 21.1438 27.8148 22.0948 27.8178H22.4749L22.744 28.4089C23.1024 29.2409 23.9337 29.7889 24.8633 29.8064C25.7929 29.8239 26.6453 29.3074 27.0368 28.4897L27.3583 27.8178H27.6679C28.6161 27.8224 29.4343 28.4633 29.6389 29.361C26.925 31.6989 22.8364 31.6987 20.1228 29.3605V29.361ZM30.3568 28.6498C29.8898 27.612 28.8354 26.9388 27.6679 26.9326H27.0669C26.8891 26.9326 26.7276 27.0327 26.6527 27.189L26.2084 28.1172C25.9692 28.6172 25.4477 28.9326 24.8793 28.9215C24.311 28.9101 23.8032 28.5742 23.5852 28.065C23.5839 28.0621 23.5826 28.0591 23.5811 28.0561L23.1898 27.1967C23.1169 27.0364 22.9531 26.9329 22.7725 26.9326H22.0951C20.9248 26.9297 19.8655 27.6043 19.4031 28.6471C16.9401 25.8266 17.1791 21.6312 19.948 19.0915C22.7167 16.5517 27.0496 16.5527 29.817 19.0939C32.5844 21.6352 32.8216 25.8304 30.3568 28.6495V28.6498Z" fill="#BDBDBD"/>
<path d="M26.3234 19.9936C26.6433 19.3214 26.4484 18.5242 25.8515 18.0625C25.2547 17.6011 24.4096 17.5944 23.8051 18.0467C23.2006 18.4991 22.9927 19.293 23.3017 19.9701C22.5509 20.42 22.06 21.1846 21.9752 22.0364C21.9726 22.063 21.9655 22.1344 21.9614 24.0566C21.9614 25.5756 23.2314 26.8071 24.7979 26.8071C26.3646 26.8071 27.6346 25.5756 27.6346 24.0566V22.3111C27.6341 21.3721 27.1396 20.4983 26.3234 19.9936ZM26.7215 22.5887C25.9305 21.7345 24.9301 21.087 23.8127 20.7068C24.4078 20.3647 25.1461 20.3582 25.7474 20.6898C26.3486 21.0215 26.7205 21.6401 26.7215 22.3108V22.589V22.5887ZM22.8842 22.1238V22.1213V22.1238ZM22.8852 22.1147C22.9109 21.8728 22.985 21.6384 23.1038 21.4242C23.601 21.5519 24.0787 21.7436 24.5235 21.9941C24.3811 22.1878 24.1959 22.3484 23.9814 22.464C23.6438 22.6552 23.2681 22.7747 22.8793 22.8148C22.8803 22.4615 22.8824 22.1786 22.8849 22.1147H22.8852ZM24.0734 19.3195C24.0728 19.0208 24.2619 18.753 24.549 18.645C24.8361 18.5373 25.1619 18.6117 25.369 18.8325C25.5762 19.0534 25.6218 19.375 25.4839 19.6418C25.2597 19.5875 25.0294 19.5601 24.7981 19.5601C24.5793 19.5601 24.3607 19.5843 24.1475 19.6325C24.0986 19.5349 24.0731 19.4277 24.0728 19.3192L24.0734 19.3195ZM24.7981 25.9217C23.7368 25.9207 22.8763 25.0867 22.8747 24.0573C22.8747 23.9479 22.8752 23.8274 22.8757 23.7014C23.4298 23.6633 23.9674 23.5005 24.4458 23.2263C24.777 23.0452 25.0621 22.7938 25.2789 22.4909C25.8465 22.9279 26.3341 23.4543 26.7218 24.048V24.0566C26.7205 25.0863 25.86 25.9207 24.7979 25.9217H24.7981Z" fill="#BDBDBD"/>
<path d="M14.7189 27.6179H5.79585C5.55332 27.6169 5.322 27.5193 5.1559 27.3483C4.99311 27.1752 4.90675 26.9472 4.91567 26.713C4.91567 26.71 4.91567 26.7068 4.91567 26.7041L4.92993 20.0484L6.45846 21.5309C6.63679 21.7038 6.92594 21.7038 7.10427 21.5309C7.28234 21.358 7.28234 21.0776 7.10427 20.9049L4.79822 18.6688C4.78854 18.6594 4.77835 18.6507 4.76791 18.6421L4.76638 18.6408C4.75695 18.6332 4.74676 18.6263 4.73708 18.6193C4.73479 18.6179 4.73275 18.6164 4.73046 18.6149C4.72078 18.6085 4.71084 18.6028 4.70065 18.5974C4.69785 18.5956 4.69505 18.5939 4.69225 18.5924C4.68256 18.5872 4.67263 18.583 4.66244 18.5786C4.65887 18.5769 4.65556 18.5751 4.65174 18.5736C4.64206 18.5697 4.63212 18.5665 4.62244 18.5633C4.61811 18.5618 4.61378 18.5601 4.60945 18.5588C4.59926 18.5559 4.58907 18.5534 4.57888 18.5512C4.57455 18.5502 4.57022 18.5489 4.56563 18.548C4.55366 18.5457 4.54143 18.544 4.5292 18.5425C4.52665 18.5423 4.52411 18.5418 4.5213 18.5415C4.49048 18.5386 4.4594 18.5386 4.42857 18.5415C4.42628 18.5415 4.42424 18.5423 4.42195 18.5425C4.40947 18.5438 4.39698 18.5457 4.3845 18.548C4.37966 18.5489 4.37533 18.5502 4.37074 18.5512C4.36081 18.5534 4.35113 18.5556 4.34119 18.5586C4.33635 18.5601 4.33151 18.562 4.32667 18.5635C4.3175 18.5667 4.30807 18.5699 4.29916 18.5734C4.29457 18.5751 4.29024 18.5774 4.28616 18.5793C4.27674 18.5833 4.26782 18.5872 4.25891 18.5919C4.25483 18.5939 4.25126 18.5964 4.24744 18.5983C4.23827 18.6033 4.22935 18.6082 4.22069 18.6139C4.21687 18.6164 4.2133 18.6191 4.20974 18.6218C4.20133 18.6277 4.19292 18.6334 4.18503 18.6396C4.18019 18.6436 4.1756 18.6478 4.17102 18.652C4.16465 18.6574 4.15802 18.6626 4.15191 18.6685L1.84688 20.9049C1.66855 21.0778 1.66855 21.358 1.84688 21.5309C2.02521 21.7038 2.3141 21.7038 2.49243 21.5309L4.01663 20.0531L4.00262 26.6982C3.98912 27.1616 4.16337 27.6117 4.48768 27.9521C4.82344 28.2984 5.2899 28.4976 5.78005 28.5032H14.7189C14.9711 28.5032 15.1754 28.3051 15.1754 28.0606C15.1754 27.816 14.9711 27.6179 14.7189 27.6179Z" fill="#BDBDBD"/>
<path d="M18.4741 4.3822H27.3974C27.6394 4.38442 27.8702 4.482 28.0363 4.6527C28.2024 4.8234 28.2896 5.0524 28.2778 5.28709V5.29598L28.2638 11.9516L26.735 10.4692C26.5567 10.2962 26.2678 10.2962 26.0895 10.4692C25.9112 10.6421 25.9112 10.9225 26.0895 11.0954L28.3945 13.3313C28.4136 13.3496 28.4345 13.3664 28.4567 13.3812C28.4585 13.3824 28.46 13.3837 28.4618 13.3849C28.4704 13.3906 28.4793 13.3955 28.488 13.4005C28.4921 13.4029 28.4959 13.4054 28.5 13.4076C28.5079 13.4116 28.516 13.4151 28.5239 13.4188C28.5295 13.4212 28.5349 13.4239 28.5402 13.4264C28.5481 13.4294 28.556 13.4321 28.5639 13.4348C28.57 13.4368 28.5762 13.4393 28.5823 13.441C28.5914 13.4437 28.6006 13.4457 28.61 13.4479C28.6151 13.4491 28.6202 13.4506 28.6256 13.4519C28.6391 13.4543 28.6526 13.4566 28.6666 13.458L28.6699 13.4585C28.716 13.4635 28.7626 13.4612 28.8082 13.4524C28.8144 13.4511 28.8202 13.4494 28.8263 13.4479C28.8347 13.4459 28.8431 13.4442 28.8513 13.4415C28.8594 13.439 28.8668 13.4363 28.8745 13.4333C28.8808 13.4314 28.887 13.4294 28.8931 13.4272C28.9007 13.4239 28.9081 13.4205 28.9152 13.417C28.9213 13.4141 28.9275 13.4116 28.9333 13.4086C28.9392 13.4054 28.9456 13.4015 28.9517 13.3978C28.9578 13.3943 28.9652 13.3903 28.9715 13.3861C28.9761 13.3832 28.9799 13.3797 28.9843 13.377C29.0041 13.3634 29.0227 13.3481 29.0401 13.3318L31.3459 11.0959C31.5242 10.923 31.5242 10.6426 31.3459 10.4696C31.1675 10.2967 30.8784 10.2967 30.7001 10.4696L29.1761 11.9477L29.1901 5.3024C29.2059 4.83328 29.0263 4.3775 28.6921 4.03808C28.3578 3.69865 27.8967 3.50374 27.4127 3.49731H18.4743C18.2221 3.49731 18.0178 3.69544 18.0178 3.94C18.0178 4.18432 18.2221 4.38269 18.4743 4.38269L18.4741 4.3822Z" fill="#BDBDBD"/>
</g>
<defs>
<clipPath id="clip0">
<rect width="33" height="32" fill="white"/>
</clipPath>
</defs>
</svg>
