<svg width="49" height="50" viewBox="0 0 49 50" fill="none" xmlns="http://www.w3.org/2000/svg">
<g clip-path="url(#clip0)">
<path d="M12.1114 0.5C5.4761 0.5 0.0966797 5.87942 0.0966797 12.5147C0.0966797 19.1504 5.4761 24.5298 12.1114 24.5298C18.7471 24.5298 24.1265 19.1504 24.1265 12.5147C24.1189 5.88245 18.744 0.507565 12.1114 0.5ZM4.57846 20.0488V19.9451C4.57846 19.9221 4.57733 19.8994 4.57468 19.8767C4.48389 18.9786 4.77743 18.084 5.38267 17.4145C5.98791 16.7449 6.84848 16.3629 7.75104 16.3629H8.31656L9.53498 20.174C9.61139 20.4134 9.81376 20.5908 10.0612 20.6351C10.3082 20.6794 10.5597 20.5833 10.7144 20.3854L11.9363 18.8553H12.187L13.5292 20.4108C13.6873 20.5939 13.9313 20.679 14.1692 20.6336C14.4071 20.5882 14.6027 20.4195 14.6825 20.1906L16.014 16.3629H16.4725C17.3751 16.3629 18.2353 16.7449 18.8405 17.4145C19.4457 18.0844 19.7389 18.9786 19.6481 19.8767C19.6455 19.8994 19.6443 19.9221 19.6443 19.9451V20.0488C17.6482 22.0495 14.9379 23.1737 12.1114 23.1737C9.28494 23.1737 6.57461 22.0495 4.57808 20.0488H4.57846ZM11.788 16.4771H12.3206L12.0543 17.3279L11.788 16.4771ZM20.9028 18.5349C20.4292 16.4703 18.5916 15.0068 16.4729 15.0072H15.5317C15.2435 15.0072 14.9866 15.1899 14.8917 15.4626L13.7879 18.6356L13.2576 18.0212L13.89 16.002C13.9543 15.7962 13.9173 15.5719 13.7894 15.3979C13.6616 15.2243 13.4588 15.1214 13.2432 15.1214H10.8654C10.6497 15.1214 10.447 15.2243 10.3191 15.3979C10.1913 15.5719 10.1538 15.7962 10.2185 16.002L10.8555 18.0364L10.4409 18.5557L9.45743 15.4789C9.36778 15.1978 9.10677 15.0072 8.81172 15.0072H7.75142C5.63233 15.006 3.79392 16.4699 3.31995 18.5349C0.277116 14.0967 1.02004 8.08627 5.05168 4.5218C9.08332 0.957711 15.1395 0.957711 19.1715 4.5218C23.2031 8.08627 23.9461 14.0967 20.9028 18.5349Z" fill="#1F0087"/>
<path d="M12.951 3.41577H8.97115C8.2025 3.41615 7.57986 4.03879 7.5791 4.80744V10.3291C7.5791 12.7606 9.54991 14.7318 11.9814 14.7318C14.413 14.7318 16.3842 12.7606 16.3842 10.3291V6.8486C16.3819 4.95345 14.8461 3.41766 12.951 3.41577ZM15.0027 6.53879C13.7374 6.92804 12.424 6.64887 11.0917 5.70205C10.7033 5.42289 10.339 5.11157 10.0027 4.77112H12.9517C13.978 4.77339 14.8491 5.52389 15.0027 6.53879ZM10.2111 6.73814C9.88316 7.20569 9.44475 7.58548 8.93483 7.84308V5.62035C9.32786 6.02813 9.75493 6.40186 10.2111 6.73814ZM11.9814 13.3757C10.2996 13.3738 8.93672 12.0109 8.93483 10.3291V9.29414C10.168 8.92759 10.9567 8.04773 11.372 7.44665C12.1524 7.84497 13.0145 8.05718 13.8906 8.06664C14.2734 8.06588 14.6555 8.022 15.0284 7.93538V10.3291C15.0265 12.0109 13.6632 13.3738 11.9814 13.3757Z" fill="#1F0087"/>
<path d="M36.9448 25.4702C30.3091 25.4702 24.9297 30.8493 24.9297 37.4849C24.9297 44.1206 30.3091 49.5 36.9448 49.5C43.5804 49.5 48.9595 44.121 48.9595 37.4853C48.9519 30.8527 43.5774 25.4778 36.9448 25.4702ZM29.8794 45.4589C30.1733 44.0775 31.3955 43.0913 32.8076 43.0959H33.372L33.7714 44.0011C34.3037 45.2751 35.538 46.1141 36.9183 46.141C38.2986 46.1678 39.5643 45.3768 40.1457 44.1248L40.6231 43.0959H41.0827C42.4906 43.103 43.7057 44.0843 44.0094 45.4589C39.9797 49.0389 33.9088 49.0385 29.8794 45.4582V45.4589ZM45.0754 44.3699C44.382 42.7808 42.8163 41.75 41.0827 41.7405H40.1904C39.9263 41.7405 39.6865 41.8937 39.5753 42.1332L38.9156 43.5543C38.5604 44.32 37.7861 44.803 36.9421 44.786C36.0982 44.7686 35.3443 44.2541 35.0205 43.4745C35.0186 43.47 35.0167 43.4654 35.0145 43.4609L34.4334 42.1449C34.3252 41.8994 34.082 41.7409 33.8138 41.7405H32.808C31.0702 41.736 29.4973 42.769 28.8108 44.3657C25.1536 40.047 25.5084 33.6228 29.6199 29.7337C33.731 25.8447 40.1646 25.8462 44.2738 29.7375C48.383 33.6288 48.7352 40.0526 45.0754 44.3695V44.3699Z" fill="#1F0087"/>
<path d="M39.0862 31.1152C39.5613 30.0859 39.2719 28.8652 38.3856 28.1582C37.4993 27.4516 36.2446 27.4414 35.3469 28.134C34.4493 28.8266 34.1406 30.0424 34.5995 31.0793C33.4847 31.7681 32.7558 32.9389 32.6298 34.2431C32.626 34.284 32.6154 34.3933 32.6094 37.3367C32.6094 39.6627 34.4951 41.5483 36.8211 41.5483C39.1475 41.5483 41.0331 39.6627 41.0331 37.3367V34.6638C41.0324 33.226 40.2982 31.888 39.0862 31.1152ZM39.6774 35.089C38.5029 33.7809 37.0174 32.7894 35.3583 32.2073C36.2419 31.6834 37.3382 31.6735 38.2309 32.1812C39.1236 32.6892 39.6759 33.6364 39.6774 34.6634V35.0893V35.089ZM33.9795 34.377V34.3733V34.377ZM33.981 34.363C34.0192 33.9927 34.1293 33.6337 34.3056 33.3058C35.0439 33.5013 35.7532 33.7949 36.4137 34.1785C36.2022 34.475 35.9272 34.7209 35.6087 34.8979C35.1075 35.1907 34.5495 35.3738 33.9723 35.4351C33.9738 34.8941 33.9768 34.461 33.9806 34.363H33.981ZM35.7453 30.0829C35.7445 29.6256 36.0252 29.2155 36.4515 29.0502C36.8778 28.8853 37.3616 28.9991 37.6692 29.3373C37.9767 29.6755 38.0444 30.168 37.8398 30.5765C37.5069 30.4933 37.1649 30.4513 36.8214 30.4513C36.4965 30.4513 36.172 30.4884 35.8553 30.5622C35.7827 30.4127 35.7449 30.2486 35.7445 30.0825L35.7453 30.0829ZM36.8214 40.1926C35.2456 40.1911 33.9678 38.9141 33.9655 37.3378C33.9655 37.1702 33.9662 36.9856 33.967 36.7927C34.7897 36.7344 35.5879 36.4852 36.2983 36.0653C36.7901 35.788 37.2133 35.4029 37.5353 34.9392C38.378 35.6083 39.1021 36.4144 39.6778 37.3234V37.3367C39.6759 38.9133 38.3981 40.1911 36.8211 40.1926H36.8214Z" fill="#1F0087"/>
<path d="M21.8556 42.7897H8.60615C8.24604 42.7882 7.90256 42.6388 7.65593 42.377C7.41421 42.1119 7.28598 41.7627 7.29922 41.4041C7.29922 41.3996 7.29922 41.3947 7.29922 41.3905L7.3204 31.1991L9.59004 33.4691C9.85483 33.7339 10.2842 33.7339 10.549 33.4691C10.8134 33.2043 10.8134 32.7749 10.549 32.5105L7.12483 29.0864C7.11046 29.072 7.09533 29.0588 7.07982 29.0455L7.07755 29.0437C7.06355 29.0319 7.04842 29.0213 7.03405 29.0107C7.03064 29.0085 7.02762 29.0062 7.02421 29.0039C7.00984 28.9941 6.99509 28.9854 6.97996 28.9771C6.97579 28.9744 6.97163 28.9718 6.96747 28.9695C6.9531 28.9616 6.93835 28.9551 6.92321 28.9483C6.91792 28.9457 6.913 28.943 6.90733 28.9408C6.89295 28.9347 6.8782 28.9298 6.86383 28.9249C6.8574 28.9226 6.85096 28.92 6.84453 28.9181C6.8294 28.9135 6.81427 28.9097 6.79914 28.9063C6.79271 28.9048 6.78628 28.9029 6.77947 28.9014C6.76169 28.898 6.74354 28.8954 6.72538 28.8931C6.7216 28.8927 6.71781 28.892 6.71365 28.8916C6.66788 28.887 6.62173 28.887 6.57596 28.8916C6.57256 28.8916 6.56953 28.8927 6.56612 28.8931C6.54759 28.895 6.52905 28.898 6.51052 28.9014C6.50333 28.9029 6.4969 28.9048 6.49009 28.9063C6.47534 28.9097 6.46096 28.9131 6.44621 28.9177C6.43903 28.92 6.43184 28.923 6.42465 28.9253C6.41103 28.9302 6.39704 28.9351 6.3838 28.9404C6.37699 28.943 6.37056 28.9464 6.36451 28.9495C6.35051 28.9555 6.33727 28.9616 6.32403 28.9688C6.31798 28.9718 6.31268 28.9756 6.30701 28.9786C6.29339 28.9862 6.28015 28.9937 6.26729 29.0024C6.26161 29.0062 6.25632 29.0104 6.25102 29.0145C6.23854 29.0236 6.22606 29.0323 6.21433 29.0418C6.20714 29.0478 6.20033 29.0542 6.19353 29.0607C6.18407 29.069 6.17423 29.0769 6.16516 29.086L2.74254 32.5105C2.47775 32.7753 2.47775 33.2043 2.74254 33.4691C3.00733 33.7339 3.43629 33.7339 3.70108 33.4691L5.96429 31.2062L5.94349 41.3814C5.92344 42.0911 6.18218 42.7803 6.66372 43.3015C7.16228 43.8319 7.8549 44.1368 8.5827 44.1455H21.8556C22.23 44.1455 22.5334 43.8421 22.5334 43.4676C22.5334 43.0931 22.23 42.7897 21.8556 42.7897Z" fill="#1F0087"/>
<path d="M27.4314 7.2102H40.6812C41.0405 7.2136 41.3832 7.36302 41.6299 7.62441C41.8765 7.8858 42.0059 8.23645 41.9885 8.59581V8.60943L41.9677 18.8009L39.6977 16.5309C39.4329 16.2661 39.0039 16.2661 38.7391 16.5309C38.4743 16.7956 38.4743 17.225 38.7391 17.4898L42.1617 20.9135C42.1901 20.9415 42.2211 20.9672 42.254 20.9899C42.2567 20.9918 42.2589 20.9937 42.2616 20.9956C42.2745 21.0043 42.2877 21.0119 42.3006 21.0194C42.3066 21.0232 42.3123 21.027 42.3183 21.0304C42.3301 21.0365 42.3422 21.0418 42.3539 21.0474C42.3622 21.0512 42.3702 21.0554 42.3781 21.0592C42.3898 21.0637 42.4016 21.0679 42.4133 21.072C42.4224 21.075 42.4314 21.0788 42.4405 21.0815C42.4541 21.0856 42.4677 21.0887 42.4817 21.0921C42.4893 21.094 42.4969 21.0962 42.5048 21.0981C42.5249 21.1019 42.5449 21.1053 42.5657 21.1076L42.5706 21.1083C42.6391 21.1159 42.7083 21.1125 42.776 21.0989C42.7851 21.097 42.7938 21.0943 42.8029 21.0921C42.8154 21.089 42.8279 21.0864 42.84 21.0822C42.8521 21.0785 42.863 21.0743 42.8744 21.0698C42.8838 21.0667 42.8929 21.0637 42.902 21.0603C42.9134 21.0554 42.9243 21.0501 42.9349 21.0448C42.944 21.0402 42.9531 21.0365 42.9618 21.0319C42.9705 21.027 42.9799 21.021 42.989 21.0153C42.9981 21.01 43.0091 21.0039 43.0185 20.9975C43.0253 20.993 43.031 20.9877 43.0374 20.9835C43.0669 20.9627 43.0945 20.9392 43.1203 20.9143L46.544 17.4905C46.8088 17.2257 46.8088 16.7964 46.544 16.5316C46.2792 16.2668 45.8499 16.2668 45.5851 16.5316L43.3223 18.7948L43.3431 8.61927C43.3665 7.90093 43.0998 7.20301 42.6035 6.68326C42.1073 6.16352 41.4226 5.86506 40.7039 5.85522H27.4318C27.0573 5.85522 26.7539 6.1586 26.7539 6.53309C26.7539 6.9072 27.0573 7.21096 27.4318 7.21096L27.4314 7.2102Z" fill="#1F0087"/>
</g>
<defs>
<clipPath id="clip0">
<rect width="49" height="49" fill="white" transform="translate(0 0.5)"/>
</clipPath>
</defs>
</svg>
