<svg width="149" height="14" viewBox="0 0 149 14" fill="none" xmlns="http://www.w3.org/2000/svg">
<path d="M19.537 0.669462L15.2173 13.4282H14.233L10.2778 1.98179L6.30438 13.4282H5.32013L0.982154 0.669462H1.9664L5.84871 12.1523L9.84038 0.669462H10.7335L14.7069 12.1706L18.6257 0.669462H19.537ZM39.7419 9.83754H32.3418L30.7196 13.4282H29.7171L35.5862 0.669462H36.5157L42.3848 13.4282H41.3823L39.7419 9.83754ZM39.3956 9.05379L36.0418 1.69016L32.7063 9.05379H39.3956ZM54.7257 0.669462H55.6553V12.5898H63.0007V13.4282H54.7257V0.669462ZM79.2036 7.13998L76.342 10.0745V13.4282H75.4124V0.669462H76.342V8.87152L84.3071 0.669462H85.4372L79.8233 6.46558L85.8199 13.4282H84.6899L79.2036 7.13998ZM98.2529 0.669462H99.1824V13.4282H98.2529V0.669462ZM124.042 0.669462V13.4282H123.277L114.583 2.34633V13.4282H113.653V0.669462H114.437L123.113 11.7514V0.669462H124.042ZM147.636 7.10352H148.529V11.8789C147.97 12.4136 147.29 12.8207 146.488 13.1001C145.698 13.3796 144.86 13.5194 143.973 13.5194C142.709 13.5194 141.567 13.2399 140.546 12.6809C139.537 12.122 138.741 11.3504 138.158 10.3661C137.587 9.38187 137.302 8.27611 137.302 7.04884C137.302 5.82157 137.587 4.71581 138.158 3.73157C138.741 2.74732 139.537 1.97572 140.546 1.41676C141.567 0.857806 142.715 0.578329 143.991 0.578329C144.926 0.578329 145.783 0.730219 146.561 1.034C147.351 1.32563 148.025 1.757 148.584 2.3281L148.001 2.94781C147.466 2.41316 146.865 2.0304 146.196 1.79952C145.54 1.5565 144.811 1.43499 144.009 1.43499C142.915 1.43499 141.925 1.67801 141.038 2.16406C140.163 2.65011 139.477 3.3245 138.978 4.18724C138.48 5.03782 138.231 5.99169 138.231 7.04884C138.231 8.09385 138.48 9.04772 138.978 9.91045C139.489 10.761 140.181 11.4354 141.056 11.9336C141.931 12.4197 142.915 12.6627 144.009 12.6627C145.467 12.6627 146.676 12.2739 147.636 11.4962V7.10352Z" fill="#333333"/>
</svg>
